<svg width="251" height="283" viewBox="0 0 251 283" fill="none" xmlns="http://www.w3.org/2000/svg">
<path fill-rule="evenodd" clip-rule="evenodd" d="M148.255 222.734L147.941 222.553C142.641 219.506 136.929 218.878 131.091 220.701C126.278 222.203 120.873 221.77 116.161 219.063C107.229 213.925 104.166 202.542 109.324 193.64C114.483 184.738 125.906 181.689 134.842 186.827C139.551 189.54 142.63 193.985 143.73 198.886C145.066 204.833 148.47 209.452 153.769 212.497L156.477 214.055C161.773 217.102 167.487 217.73 173.323 215.908C176.894 214.793 180.788 214.743 184.484 215.9C190.322 217.723 196.04 217.093 201.335 214.046L204.049 212.484C209.345 209.438 212.749 204.825 214.085 198.881C214.487 197.086 215.168 195.319 216.14 193.642C221.297 184.742 232.722 181.689 241.657 186.829C250.591 191.969 253.653 203.351 248.494 212.251C244.037 219.94 234.905 223.261 226.742 220.712C220.904 218.888 215.186 219.516 209.885 222.562L207.179 224.119C201.883 227.165 198.479 231.781 197.142 237.728C196.738 239.523 196.057 241.293 195.084 242.97C190.631 250.659 181.499 253.98 173.334 251.431C167.495 249.606 161.778 250.232 156.479 253.281L153.767 254.843C148.472 257.888 145.067 262.502 143.732 268.45C143.33 270.247 142.647 272.013 141.674 273.693C136.517 282.591 125.093 285.643 116.157 280.504C111.449 277.794 108.372 273.352 107.271 268.45C105.933 262.506 102.531 257.893 97.2354 254.848L94.512 253.281C89.2166 250.236 83.506 249.606 77.6701 251.427C72.863 252.925 67.4591 252.489 62.7511 249.783C53.8195 244.645 50.7557 233.263 55.9145 224.361C61.0733 215.459 72.4963 212.41 81.4317 217.551C86.1415 220.259 89.2204 224.704 90.3202 229.605C91.6557 235.55 95.0582 240.164 100.352 243.209L103.073 244.774C108.369 247.821 114.083 248.451 119.917 246.63C123.484 245.521 127.378 245.471 131.072 246.625C136.91 248.447 142.626 247.817 147.926 244.774L148.255 244.586C152.28 242.269 154.584 238.295 154.584 233.664C154.583 229.029 152.278 225.054 148.253 222.741L148.255 222.734ZM2.50652 193.64C-2.65041 202.541 0.409704 213.923 9.34314 219.061C18.2785 224.201 29.7015 221.152 34.8603 212.25C39.3139 204.562 37.6399 195.025 31.3457 189.259C26.8453 185.135 24.5352 179.889 24.5352 173.797V170.65C24.5352 164.562 26.8434 159.319 31.3363 155.195C32.6924 153.949 33.8877 152.48 34.8603 150.805C35.8311 149.128 36.5138 147.361 36.916 145.565C38.2515 139.618 41.6558 135.004 46.9511 131.957L49.6633 130.395C54.9624 127.347 60.6786 126.72 66.5183 128.545C74.6811 131.094 83.8147 127.771 88.2683 120.084C93.4271 111.182 90.367 99.7997 81.4317 94.6619C72.4963 89.5222 61.0733 92.571 55.9145 101.475C54.9418 103.152 54.261 104.921 53.8588 106.713C52.5233 112.66 49.119 117.274 43.8237 120.321L43.5263 120.491C39.501 122.807 34.8921 122.807 30.8668 120.491C26.8415 118.176 24.5371 114.199 24.5371 109.57V109.205C24.5371 103.115 26.8453 97.8746 31.3382 93.7487C32.6943 92.5057 33.8895 91.0335 34.8622 89.3619C35.833 87.6829 36.5157 85.9162 36.9178 84.1198C38.2534 78.1751 41.6577 73.5609 46.9549 70.514L49.6652 68.9543C54.9643 65.9074 60.6805 65.2794 66.5201 67.1038C74.6829 69.6531 83.8165 66.3323 88.2702 58.6433C93.429 49.743 90.3688 38.3605 81.4335 33.2208C72.4982 28.0812 61.0752 31.1318 55.9164 40.0339C54.9437 41.7111 54.261 43.4778 53.8588 45.2723C52.5233 51.2189 49.1209 55.833 43.8237 58.8818L41.1115 60.4379C35.8105 63.4866 30.0962 64.1128 24.2565 62.2884C16.0937 59.739 6.96389 63.0636 2.50465 70.7507C-1.94711 78.4378 -0.274894 87.9755 6.01742 93.7413C10.5178 97.8671 12.8279 103.109 12.8279 109.201V112.351C12.8279 118.439 10.5215 123.679 6.02677 127.805C4.67254 129.048 3.4773 130.52 2.50465 132.195C-1.94711 139.881 -0.274894 149.418 6.01742 155.188C10.5178 159.31 12.8279 164.556 12.8279 170.646V173.799C12.8279 179.887 10.5234 185.128 6.02864 189.253C4.67254 190.498 3.4773 191.969 2.50465 193.642L2.50652 193.64ZM160.68 176.279C161.778 181.182 164.861 185.629 169.569 188.337C178.504 193.474 189.927 190.428 195.086 181.525C200.245 172.625 197.185 161.243 188.251 156.103C183.54 153.391 178.136 152.963 173.323 154.465C167.485 156.289 161.773 155.658 156.474 152.611L153.767 151.055C148.47 148.008 145.067 143.392 143.73 137.443C142.916 133.807 141.012 130.423 138.163 127.812C133.663 123.688 131.353 118.443 131.353 112.351V109.205C131.353 103.115 133.659 97.8727 138.156 93.7487C139.512 92.502 140.707 91.0335 141.678 89.3619C146.837 80.4598 143.775 69.0773 134.842 63.9395C125.906 58.7998 114.483 61.8486 109.324 70.7507C104.871 78.4378 106.545 87.9755 112.837 93.7413C117.338 97.8671 119.646 103.109 119.646 109.201V112.351C119.646 118.441 117.339 123.681 112.845 127.805C111.49 129.048 110.295 130.522 109.324 132.197C108.352 133.878 107.667 135.645 107.265 137.445C105.931 143.394 102.527 148.011 97.2298 151.058L94.5363 152.607C89.2353 155.659 83.5154 156.282 77.6739 154.456C69.5073 151.902 60.3719 155.225 55.9145 162.916C50.7576 171.816 53.8177 183.199 62.7511 188.337C71.6864 193.476 83.1095 190.428 88.2683 181.525C89.2428 179.844 89.9255 178.076 90.3277 176.276C91.6613 170.327 95.0656 165.709 100.365 162.661L103.054 161.114C108.355 158.063 114.077 157.437 119.917 159.263C123.617 160.423 127.519 160.372 131.091 159.258C136.929 157.435 142.641 158.063 147.941 161.108L150.643 162.663C155.942 165.709 159.347 170.327 160.68 176.278V176.279ZM216.142 132.197C217.113 130.522 218.31 129.052 219.664 127.807C224.159 123.681 226.464 118.441 226.464 112.352V109.205C226.464 103.113 224.155 97.869 219.655 93.7431C216.808 91.136 214.908 87.7518 214.09 84.1235C212.755 78.1788 209.35 73.5647 204.055 70.5196L203.754 70.3482C199.729 68.0318 195.12 68.0318 191.094 70.3482C187.069 72.6646 184.765 76.6395 184.765 81.2704V81.6338C184.765 87.7257 187.075 92.9679 191.573 97.0938C197.866 102.861 199.542 112.399 195.084 120.086C189.925 128.985 178.502 132.035 169.567 126.897C160.634 121.76 157.574 110.377 162.73 101.477C163.701 99.8015 164.898 98.3312 166.254 97.0845C170.749 92.9586 173.056 87.7183 173.056 81.6301V78.4844C173.056 72.3925 170.745 67.1485 166.245 63.0226C163.398 60.4136 161.498 57.0294 160.68 53.3974C159.345 47.4527 155.941 42.8404 150.645 39.7954L147.924 38.23C142.628 35.1831 136.916 34.5551 131.08 36.3739C126.273 37.8741 120.867 37.4399 116.157 34.7303C107.224 29.5925 104.162 18.21 109.321 9.30967C114.479 0.407521 125.904 -2.6431 134.838 2.49656C139.544 5.20242 142.623 9.64884 143.724 14.55C145.06 20.4928 148.462 25.1069 153.758 28.152L156.485 29.7192C161.778 32.7642 167.489 33.3923 173.325 31.5753C178.136 30.077 183.538 30.5093 188.246 33.2171C192.954 35.9248 196.031 40.3712 197.132 45.2705C198.468 51.2152 201.872 55.8275 207.168 58.8744L209.889 60.4397C215.184 63.4866 220.899 64.1165 226.733 62.2958C231.544 60.7975 236.944 61.2299 241.654 63.9395C250.587 69.0773 253.649 80.4617 248.49 89.3619C247.521 91.0354 246.324 92.5039 244.968 93.7487C240.473 97.8709 238.165 103.115 238.165 109.205V112.351C238.165 118.441 240.475 123.688 244.976 127.811C251.27 133.578 252.946 143.118 248.49 150.803C243.332 159.703 231.909 162.754 222.973 157.614C214.04 152.476 210.98 141.094 216.137 132.194L216.142 132.197Z" fill="url(#paint0_linear_4796_128502)"/>
<defs>
<linearGradient id="paint0_linear_4796_128502" x1="30.2065" y1="198.366" x2="219.303" y2="84.6852" gradientUnits="userSpaceOnUse">
<stop stop-color="#3383C5"/>
<stop offset="1" stop-color="#29C4B8"/>
</linearGradient>
</defs>
</svg>
