<?xml version="1.0" encoding="utf-8"?>
<!-- Generator: Adobe Illustrator 28.3.0, SVG Export Plug-In . SVG Version: 6.00 Build 0)  -->
<svg version="1.1" id="Layer_1" xmlns="http://www.w3.org/2000/svg" xmlns:xlink="http://www.w3.org/1999/xlink" x="0px" y="0px"
	 viewBox="0 0 160 49" style="enable-background:new 0 0 160 49;" xml:space="preserve">
<style type="text/css">
	.st0{fill-rule:evenodd;clip-rule:evenodd;fill:url(#SVGID_1_);}
	.st1{fill:#02043C;}
</style>
<linearGradient id="SVGID_1_" gradientUnits="userSpaceOnUse" x1="5.7695" y1="15.0852" x2="39.034" y2="35.7921" gradientTransform="matrix(1 0 0 -1 0 50)">
	<stop  offset="0" style="stop-color:#3383C5"/>
	<stop  offset="1" style="stop-color:#29C4B8"/>
</linearGradient>
<path class="st0" d="M26.6,38.6L26.6,38.6c-1-0.6-2-0.7-3.1-0.4c-0.9,0.3-1.8,0.2-2.7-0.3c-1.6-0.9-2.2-2.9-1.2-4.4
	c0.9-1.5,3-2.1,4.6-1.2c0.8,0.5,1.4,1.2,1.6,2.1c0.2,1,0.8,1.8,1.8,2.4l0.5,0.3c0.9,0.5,2,0.6,3,0.3c0.6-0.2,1.3-0.2,2,0
	c1,0.3,2.1,0.2,3-0.3l0.5-0.3c0.9-0.5,1.6-1.3,1.8-2.4c0.1-0.3,0.2-0.6,0.4-0.9c0.9-1.5,3-2.1,4.6-1.2c1.6,0.9,2.2,2.9,1.2,4.4
	c-0.8,1.3-2.4,1.9-3.9,1.5c-1-0.3-2.1-0.2-3,0.3l-0.5,0.3c-0.9,0.5-1.6,1.3-1.8,2.4c-0.1,0.3-0.2,0.6-0.4,0.9
	c-0.8,1.3-2.4,1.9-3.9,1.5c-1-0.3-2.1-0.2-3,0.3l-0.5,0.3c-0.9,0.5-1.6,1.3-1.8,2.4c-0.1,0.3-0.2,0.6-0.4,0.9
	c-0.9,1.5-3,2.1-4.6,1.2c-0.8-0.5-1.4-1.2-1.6-2.1c-0.2-1-0.8-1.8-1.8-2.4l-0.5-0.3c-0.9-0.5-2-0.6-3-0.3c-0.9,0.3-1.8,0.2-2.7-0.3
	c-1.6-0.9-2.2-2.9-1.2-4.4c0.9-1.5,3-2.1,4.6-1.2c0.8,0.5,1.4,1.2,1.6,2.1c0.2,1,0.8,1.8,1.8,2.4l0.5,0.3c0.9,0.5,2,0.6,3,0.3
	c0.6-0.2,1.3-0.2,2,0c1,0.3,2.1,0.2,3-0.3l0.1,0c0.7-0.4,1.1-1.1,1.1-1.9C27.7,39.7,27.3,39,26.6,38.6L26.6,38.6z M0.4,33.5
	c-0.9,1.5-0.4,3.5,1.2,4.4c1.6,0.9,3.6,0.4,4.6-1.2c0.8-1.3,0.5-3-0.6-4c-0.8-0.7-1.2-1.6-1.2-2.7v-0.5c0-1.1,0.4-2,1.2-2.7
	c0.2-0.2,0.5-0.5,0.6-0.8c0.2-0.3,0.3-0.6,0.4-0.9c0.2-1,0.8-1.8,1.8-2.4l0.5-0.3c1-0.5,2-0.6,3-0.3c1.5,0.4,3.1-0.1,3.9-1.5
	c0.9-1.5,0.4-3.5-1.2-4.4C13,15.5,10.9,16,10,17.6c-0.2,0.3-0.3,0.6-0.4,0.9c-0.2,1-0.8,1.8-1.8,2.4l-0.1,0c-0.7,0.4-1.5,0.4-2.3,0
	c-0.7-0.4-1.1-1.1-1.1-1.9v-0.1c0-1.1,0.4-2,1.2-2.7c0.2-0.2,0.5-0.5,0.6-0.8c0.2-0.3,0.3-0.6,0.4-0.9c0.2-1,0.8-1.8,1.8-2.4
	l0.5-0.3c1-0.5,2-0.6,3-0.3c1.5,0.4,3.1-0.1,3.9-1.5c0.9-1.5,0.4-3.5-1.2-4.4C13,4.9,10.9,5.4,10,6.9C9.9,7.2,9.7,7.5,9.7,7.8
	c-0.2,1-0.8,1.8-1.8,2.4l-0.5,0.3c-1,0.5-2,0.6-3,0.3c-1.5-0.4-3.1,0.1-3.9,1.5c-0.8,1.3-0.5,3,0.6,4c0.8,0.7,1.2,1.6,1.2,2.7v0.5
	c0,1.1-0.4,2-1.2,2.7c-0.2,0.2-0.5,0.5-0.6,0.8c-0.8,1.3-0.5,3,0.6,4c0.8,0.7,1.2,1.6,1.2,2.7v0.5c0,1.1-0.4,2-1.2,2.7
	C0.8,33,0.6,33.2,0.4,33.5L0.4,33.5z M28.8,30.5c0.2,0.8,0.7,1.6,1.6,2.1c1.6,0.9,3.6,0.4,4.6-1.2c0.9-1.5,0.4-3.5-1.2-4.4
	c-0.8-0.5-1.8-0.5-2.7-0.3c-1,0.3-2.1,0.2-3-0.3l-0.5-0.3c-0.9-0.5-1.6-1.3-1.8-2.4c-0.1-0.6-0.5-1.2-1-1.7
	c-0.8-0.7-1.2-1.6-1.2-2.7v-0.5c0-1.1,0.4-2,1.2-2.7c0.2-0.2,0.5-0.5,0.6-0.8c0.9-1.5,0.4-3.5-1.2-4.4c-1.6-0.9-3.6-0.4-4.6,1.2
	c-0.8,1.3-0.5,3,0.6,4c0.8,0.7,1.2,1.6,1.2,2.7v0.5c0,1.1-0.4,2-1.2,2.7c-0.2,0.2-0.5,0.5-0.6,0.8c-0.2,0.3-0.3,0.6-0.4,0.9
	c-0.2,1-0.8,1.8-1.8,2.4l-0.5,0.3c-1,0.5-2,0.6-3,0.3c-1.5-0.4-3.1,0.1-3.9,1.5c-0.9,1.5-0.4,3.5,1.2,4.4c1.6,0.9,3.6,0.4,4.6-1.2
	c0.2-0.3,0.3-0.6,0.4-0.9c0.2-1,0.8-1.8,1.8-2.4l0.5-0.3c1-0.5,2-0.6,3-0.3c0.7,0.2,1.4,0.2,2,0c1-0.3,2.1-0.2,3,0.3l0.5,0.3
	C28,28.7,28.6,29.5,28.8,30.5L28.8,30.5z M38.8,22.9c0.2-0.3,0.4-0.5,0.6-0.8c0.8-0.7,1.2-1.6,1.2-2.7v-0.5c0-1.1-0.4-2-1.2-2.7
	c-0.5-0.5-0.9-1-1-1.7c-0.2-1-0.8-1.8-1.8-2.4l-0.1,0c-0.7-0.4-1.5-0.4-2.3,0c-0.7,0.4-1.1,1.1-1.1,1.9v0.1c0,1.1,0.4,2,1.2,2.7
	c1.1,1,1.4,2.6,0.6,4c-0.9,1.5-3,2.1-4.6,1.2c-1.6-0.9-2.2-2.9-1.2-4.4c0.2-0.3,0.4-0.5,0.6-0.8c0.8-0.7,1.2-1.6,1.2-2.7v-0.5
	c0-1.1-0.4-2-1.2-2.7c-0.5-0.5-0.9-1-1-1.7c-0.2-1-0.8-1.8-1.8-2.4l-0.5-0.3c-0.9-0.5-2-0.6-3-0.3c-0.9,0.3-1.8,0.2-2.7-0.3
	c-1.6-0.9-2.2-2.9-1.2-4.4c0.9-1.5,3-2.1,4.6-1.2c0.8,0.5,1.4,1.2,1.6,2.1c0.2,1,0.8,1.8,1.8,2.4l0.5,0.3c0.9,0.5,2,0.6,3,0.3
	c0.9-0.3,1.8-0.2,2.7,0.3c0.8,0.5,1.4,1.2,1.6,2.1c0.2,1,0.8,1.8,1.8,2.4l0.5,0.3c0.9,0.5,2,0.6,3,0.3c0.9-0.3,1.8-0.2,2.7,0.3
	c1.6,0.9,2.2,2.9,1.2,4.4c-0.2,0.3-0.4,0.5-0.6,0.8c-0.8,0.7-1.2,1.6-1.2,2.7v0.5c0,1.1,0.4,2,1.2,2.7c1.1,1,1.4,2.7,0.6,4
	c-0.9,1.5-3,2.1-4.6,1.2C38.4,26.4,37.8,24.4,38.8,22.9L38.8,22.9z"/>
<path class="st1" d="M58.9,35.5h-3.3v-20h11.3v2.8h-8v6.2h7.5v2.7h-7.5V35.5z M82.9,35.5l-2-5.6h-7.6l-2,5.6h-3.5l7.4-20.1H79
	l7.4,20.1H82.9z M80.1,27.1l-1.9-5.5c-0.1-0.2-0.2-0.6-0.3-1c-0.1-0.4-0.3-0.9-0.4-1.3c-0.1-0.5-0.3-0.8-0.3-1.1
	c-0.1,0.4-0.2,0.8-0.3,1.3c-0.1,0.5-0.3,0.9-0.4,1.3c-0.1,0.4-0.2,0.7-0.3,0.9l-1.9,5.5H80.1z M97.6,18c-1,0-1.8,0.2-2.6,0.5
	c-0.7,0.3-1.4,0.8-1.9,1.5c-0.5,0.6-0.9,1.4-1.2,2.4c-0.3,0.9-0.4,2-0.4,3.1c0,1.5,0.2,2.9,0.7,4c0.4,1.1,1.1,2,2,2.6
	c0.9,0.6,2,0.9,3.4,0.9c0.8,0,1.7-0.1,2.5-0.2c0.8-0.2,1.6-0.4,2.5-0.7v2.8c-0.8,0.3-1.6,0.6-2.5,0.7c-0.8,0.1-1.8,0.2-2.9,0.2
	c-2,0-3.7-0.4-5.1-1.3c-1.3-0.8-2.3-2-3-3.6c-0.7-1.5-1-3.3-1-5.4c0-1.5,0.2-2.9,0.6-4.2c0.4-1.3,1-2.3,1.8-3.3
	c0.8-0.9,1.8-1.6,3-2.1c1.2-0.5,2.5-0.8,4.1-0.8c1,0,2,0.1,3,0.3c1,0.2,1.9,0.5,2.7,0.9l-1.1,2.7c-0.7-0.3-1.4-0.6-2.2-0.8
	C99.2,18.1,98.4,18,97.6,18z M113.7,35.5h-3.3V18.3h-5.9v-2.8h15v2.8h-5.8V35.5z M140.4,25.5c0,1.5-0.2,2.9-0.6,4.2
	c-0.4,1.3-1,2.3-1.7,3.3c-0.8,0.9-1.7,1.6-2.9,2.1c-1.2,0.5-2.5,0.7-4.1,0.7c-1.6,0-3-0.2-4.2-0.7c-1.2-0.5-2.1-1.2-2.9-2.1
	c-0.8-0.9-1.3-2-1.7-3.3c-0.4-1.3-0.6-2.7-0.6-4.2c0-2.1,0.3-3.9,1-5.4c0.7-1.5,1.7-2.7,3.1-3.6c1.4-0.9,3.2-1.3,5.3-1.3
	c2.1,0,3.8,0.4,5.2,1.3c1.4,0.8,2.4,2,3.1,3.6C140,21.6,140.4,23.4,140.4,25.5z M125.1,25.5c0,1.5,0.2,2.9,0.6,4
	c0.4,1.1,1.1,2,1.9,2.6c0.9,0.6,2,0.9,3.4,0.9c1.4,0,2.5-0.3,3.4-0.9c0.9-0.6,1.5-1.5,1.9-2.6c0.4-1.1,0.6-2.5,0.6-4
	c0-2.3-0.5-4.2-1.4-5.5c-0.9-1.3-2.4-2-4.5-2c-1.4,0-2.5,0.3-3.4,0.9c-0.9,0.6-1.5,1.5-1.9,2.6C125.3,22.6,125.1,23.9,125.1,25.5z
	 M150.3,15.5c1.7,0,3.1,0.2,4.3,0.6c1.1,0.4,2,1.1,2.5,1.9c0.6,0.9,0.8,1.9,0.8,3.3c0,1-0.2,1.8-0.5,2.5c-0.4,0.7-0.8,1.3-1.4,1.7
	c-0.6,0.5-1.2,0.8-1.9,1.1l5.7,8.8H156l-4.8-8H148v8h-3.3v-20H150.3z M150.1,18.2H148v6.5h2.3c1.5,0,2.6-0.3,3.3-0.8
	c0.7-0.6,1-1.4,1-2.5c0-1.2-0.4-2-1.1-2.5C152.7,18.5,151.6,18.2,150.1,18.2z"/>
</svg>
