<svg width="160" height="49" viewBox="0 0 160 49" fill="none" xmlns="http://www.w3.org/2000/svg">
<path fill-rule="evenodd" clip-rule="evenodd" d="M26.5795 38.5652L26.5232 38.5339C25.5732 38.0064 24.549 37.8976 23.5024 38.2132C22.6396 38.4733 21.6704 38.3984 20.8257 37.9296C19.2244 37.04 18.6751 35.0692 19.6 33.5278C20.5249 31.9865 22.5728 31.4586 24.1748 32.3482C25.0192 32.818 25.5712 33.5875 25.7683 34.4361C26.0078 35.4657 26.6181 36.2656 27.5681 36.7929L28.0537 37.0626C29.0031 37.5902 30.0276 37.6989 31.0738 37.3833C31.714 37.1904 32.4122 37.1817 33.0749 37.382C34.1215 37.6976 35.1466 37.5885 36.096 37.061L36.5826 36.7906C37.5319 36.263 38.1423 35.4644 38.3817 34.4351C38.4538 34.1244 38.5759 33.8185 38.7503 33.5281C39.6748 31.9871 41.7231 31.4586 43.325 32.3485C44.9267 33.2384 45.4756 35.2092 44.5507 36.7503C43.7516 38.0816 42.1144 38.6566 40.651 38.2151C39.6044 37.8993 38.5792 38.008 37.6289 38.5356L37.1436 38.805C36.1942 39.3325 35.5839 40.1318 35.3441 41.1614C35.2717 41.4721 35.1496 41.7786 34.9753 42.069C34.1768 43.4003 32.5396 43.9753 31.0759 43.5339C30.0289 43.218 29.0041 43.3265 28.0541 43.8543L27.5678 44.1247C26.6184 44.652 26.0081 45.4509 25.7687 46.4808C25.6966 46.7919 25.5742 47.0977 25.3998 47.3885C24.4752 48.9292 22.4269 49.4577 20.825 48.5678C19.9809 48.0986 19.4293 47.3294 19.2318 46.4808C18.992 45.4515 18.382 44.6529 17.4326 44.1257L16.9444 43.8543C15.995 43.3271 14.9712 43.218 13.9249 43.5333C13.0631 43.7927 12.0943 43.7172 11.2502 43.2487C9.64892 42.3591 9.09963 40.3883 10.0245 38.8469C10.9494 37.3056 12.9974 36.7777 14.5993 37.6679C15.4437 38.1367 15.9957 38.9063 16.1929 39.7549C16.4323 40.7842 17.0423 41.5831 17.9913 42.1103L18.4793 42.3814C19.4286 42.9089 20.4531 43.018 21.499 42.7027C22.1386 42.5108 22.8367 42.5021 23.4991 42.7018C24.5457 43.0173 25.5705 42.9083 26.5205 42.3814L26.5795 42.3488C27.3012 41.9477 27.7143 41.2595 27.7143 40.4577C27.714 39.6552 27.3009 38.967 26.5792 38.5665L26.5795 38.5652ZM0.449376 33.5278C-0.475173 35.0689 0.0734528 37.0397 1.67507 37.9293C3.27701 38.8192 5.32497 38.2913 6.24986 36.7499C7.04832 35.4189 6.74818 33.7676 5.61974 32.7692C4.8129 32.0552 4.39875 31.1469 4.39875 30.0921V29.5471C4.39875 28.493 4.81256 27.5853 5.61806 26.8713C5.86119 26.6554 6.07548 26.4012 6.24986 26.1111C6.4239 25.8207 6.5463 25.5148 6.6184 25.2038C6.85784 24.1741 7.46817 23.3752 8.41753 22.8477L8.90378 22.5773C9.85382 22.0494 10.8786 21.941 11.9256 22.2569C13.389 22.6983 15.0265 22.123 15.825 20.792C16.7499 19.2506 16.2013 17.2798 14.5993 16.3902C12.9974 15.5003 10.9494 16.0282 10.0245 17.5699C9.85013 17.8603 9.72806 18.1665 9.65596 18.4769C9.41653 19.5065 8.8062 20.3054 7.85683 20.833L7.80351 20.8623C7.08185 21.2634 6.25556 21.2634 5.53389 20.8623C4.81223 20.4616 4.39908 19.773 4.39908 18.9715V18.9083C4.39908 17.8538 4.8129 16.9465 5.6184 16.2321C5.86153 16.0169 6.07581 15.762 6.25019 15.4726C6.42424 15.1818 6.54664 14.876 6.61874 14.5649C6.85817 13.5356 7.4685 12.7367 8.4182 12.2091L8.90412 11.9391C9.85415 11.4115 10.879 11.3028 11.9259 11.6187C13.3894 12.0601 15.0269 11.4851 15.8253 10.1538C16.7502 8.61274 16.2016 6.64192 14.5996 5.75201C12.9977 4.86211 10.9497 5.39031 10.0248 6.93167C9.85047 7.22207 9.72806 7.52795 9.65596 7.83867C9.41653 8.86829 8.80653 9.66721 7.85683 10.1951L7.37058 10.4645C6.42021 10.9924 5.39573 11.1008 4.34878 10.7849C2.88533 10.3435 1.24851 10.9191 0.44904 12.2501C-0.349083 13.5811 -0.0492839 15.2325 1.07882 16.2308C1.88566 16.9452 2.29982 17.8528 2.29982 18.9076V19.4529C2.29982 20.5071 1.88633 21.4144 1.0805 22.1288C0.837706 22.344 0.62342 22.5989 0.44904 22.889C-0.349083 24.2196 -0.0492839 25.871 1.07882 26.87C1.88566 27.5837 2.29982 28.492 2.29982 29.5465V30.0924C2.29982 31.1466 1.88667 32.0539 1.08083 32.7683C0.837706 32.9838 0.62342 33.2384 0.44904 33.5281L0.449376 33.5278ZM28.8072 30.5219C29.0041 31.3708 29.5567 32.1407 30.4008 32.6095C32.0028 33.4991 34.0507 32.9715 34.9756 31.4302C35.9005 29.8891 35.3519 27.9183 33.7502 27.0284C32.9055 26.5589 31.9367 26.4847 31.0738 26.7448C30.0272 27.0607 29.0031 26.9513 28.053 26.4237L27.5678 26.1543C26.6181 25.6268 26.0081 24.8275 25.7683 23.7976C25.6225 23.1681 25.2811 22.5821 24.7703 22.1301C23.9635 21.416 23.5494 20.5077 23.5494 19.4529V18.9083C23.5494 17.8538 23.9628 16.9462 24.769 16.2321C25.0121 16.0162 25.2264 15.762 25.4005 15.4726C26.3253 13.9312 25.7764 11.9604 24.1748 11.0708C22.5728 10.1809 20.5249 10.7088 19.6 12.2501C18.8015 13.5811 19.1017 15.2325 20.2298 16.2308C21.0366 16.9452 21.4504 17.8528 21.4504 18.9076V19.4529C21.4504 20.5074 21.0369 21.4147 20.2311 22.1288C19.9883 22.344 19.774 22.5992 19.6 22.8893C19.4256 23.1803 19.3029 23.4862 19.2308 23.7979C18.9917 24.8279 18.3813 25.6274 17.4316 26.155L16.9487 26.4231C15.9984 26.9516 14.9729 27.0594 13.9256 26.7432C12.4615 26.3011 10.8236 26.8764 10.0245 28.2081C9.09996 29.7491 9.64859 31.7199 11.2502 32.6095C12.8521 33.4994 14.9001 32.9715 15.825 31.4302C15.9997 31.1391 16.1221 30.8329 16.1942 30.5212C16.4333 29.4913 17.0436 28.6917 17.9937 28.1639L18.4759 27.8961C19.4263 27.3679 20.4521 27.2594 21.499 27.5757C22.1624 27.7764 22.8619 27.7676 23.5024 27.5747C24.549 27.2591 25.5732 27.3679 26.5232 27.8951L27.0078 28.1642C27.9578 28.6917 28.5681 29.4913 28.8072 30.5216V30.5219ZM38.7506 22.8893C38.9246 22.5992 39.1393 22.3446 39.382 22.1291C40.1879 21.4147 40.601 20.5074 40.601 19.4533V18.9083C40.601 17.8535 40.1872 16.9455 39.3804 16.2311C38.87 15.7797 38.5293 15.1938 38.3827 14.5656C38.1433 13.5363 37.5329 12.7373 36.5836 12.2101L36.5296 12.1804C35.8079 11.7794 34.9816 11.7794 34.26 12.1804C33.5383 12.5815 33.1252 13.2697 33.1252 14.0716V14.1345C33.1252 15.1893 33.5393 16.0969 34.3458 16.8113C35.4739 17.8099 35.7744 19.4613 34.9753 20.7923C34.0504 22.333 32.0024 22.8612 30.4005 21.9716C28.7989 21.0821 28.2502 19.1112 29.1748 17.5702C29.3488 17.2801 29.5634 17.0255 29.8066 16.8097C30.6124 16.0953 31.0259 15.188 31.0259 14.1338V13.5892C31.0259 12.5344 30.6117 11.6264 29.8049 10.912C29.2945 10.4603 28.9538 9.87436 28.8072 9.24549C28.5678 8.21619 27.9575 7.4176 27.0081 6.89037L26.5202 6.61933C25.5708 6.09178 24.5467 5.98304 23.5004 6.29796C22.6386 6.5577 21.6694 6.48252 20.825 6.01337C19.2234 5.12379 18.6744 3.15296 19.5993 1.61192C20.5242 0.0705602 22.5725 -0.457639 24.1741 0.432266C25.0178 0.900773 25.5698 1.67065 25.7673 2.51925C26.0068 3.54822 26.6168 4.34714 27.5661 4.87437L28.0551 5.14573C29.0041 5.67296 30.0279 5.7817 31.0742 5.4671C31.9367 5.20768 32.9052 5.28254 33.7492 5.75137C34.5933 6.2202 35.1449 6.99007 35.3425 7.83835C35.5819 8.86765 36.1922 9.66624 37.1416 10.1938L37.6295 10.4648C38.5789 10.9924 39.6034 11.1014 40.6493 10.7862C41.5118 10.5268 42.48 10.6016 43.3244 11.0708C44.926 11.9604 45.4749 13.9315 44.5501 15.4726C44.3764 15.7623 44.1617 16.0166 43.9186 16.2321C43.1128 16.9458 42.699 17.8538 42.699 18.9083V19.4529C42.699 20.5074 43.1131 21.416 43.9199 22.1297C45.0484 23.1284 45.3489 24.7801 44.5501 26.1108C43.6252 27.6518 41.5772 28.18 39.9753 27.2901C38.3737 26.4005 37.825 24.4297 38.7496 22.8886L38.7506 22.8893Z" fill="url(#paint0_linear_4836_128372)"/>
<path d="M58.8789 35.5H55.625V15.5117H66.918V18.2734H58.8789V24.5078H66.3984V27.2559H58.8789V35.5ZM82.9414 35.5L80.9863 29.9492H73.3438L71.3887 35.5H67.9297L75.3672 15.4297H79.0039L86.4277 35.5H82.9414ZM80.1387 27.1328L78.2383 21.6641C78.1654 21.4271 78.0605 21.0944 77.9238 20.666C77.7871 20.2285 77.6504 19.7865 77.5137 19.3398C77.377 18.8841 77.263 18.5013 77.1719 18.1914C77.0807 18.5651 76.9668 18.9844 76.8301 19.4492C76.7025 19.9049 76.5749 20.3333 76.4473 20.7344C76.3288 21.1354 76.2376 21.4453 76.1738 21.6641L74.2598 27.1328H80.1387ZM97.584 18.0137C96.627 18.0137 95.7702 18.1868 95.0137 18.5332C94.2663 18.8796 93.6328 19.3809 93.1133 20.0371C92.5938 20.6842 92.1973 21.4727 91.9238 22.4023C91.6504 23.3229 91.5137 24.362 91.5137 25.5195C91.5137 27.069 91.7324 28.4043 92.1699 29.5254C92.6074 30.6374 93.2728 31.4941 94.166 32.0957C95.0592 32.6882 96.1895 32.9844 97.5566 32.9844C98.4043 32.9844 99.2292 32.9023 100.031 32.7383C100.833 32.5742 101.663 32.3509 102.52 32.0684V34.8574C101.708 35.1764 100.888 35.4089 100.059 35.5547C99.2292 35.7005 98.2721 35.7734 97.1875 35.7734C95.1458 35.7734 93.4505 35.3496 92.1016 34.502C90.7617 33.6543 89.7591 32.4603 89.0938 30.9199C88.4375 29.3796 88.1094 27.5749 88.1094 25.5059C88.1094 23.9928 88.319 22.6074 88.7383 21.3496C89.1576 20.0918 89.7682 19.0072 90.5703 18.0957C91.3724 17.1751 92.3613 16.4688 93.5371 15.9766C94.722 15.4753 96.0755 15.2246 97.5977 15.2246C98.6003 15.2246 99.5846 15.3385 100.551 15.5664C101.526 15.7852 102.428 16.0996 103.258 16.5098L102.109 19.2168C101.417 18.8887 100.692 18.6061 99.9355 18.3691C99.179 18.1322 98.3952 18.0137 97.584 18.0137ZM113.744 35.5H110.449V18.3008H104.598V15.5117H119.582V18.3008H113.744V35.5ZM140.391 25.4785C140.391 27.0189 140.195 28.4225 139.803 29.6895C139.42 30.9473 138.841 32.0319 138.066 32.9434C137.292 33.8457 136.321 34.543 135.154 35.0352C133.988 35.5273 132.62 35.7734 131.053 35.7734C129.458 35.7734 128.072 35.5273 126.896 35.0352C125.73 34.543 124.759 33.8411 123.984 32.9297C123.219 32.0182 122.645 30.929 122.262 29.6621C121.879 28.3952 121.688 26.9915 121.688 25.4512C121.688 23.3913 122.025 21.5957 122.699 20.0645C123.383 18.5241 124.417 17.3301 125.803 16.4824C127.197 15.6257 128.956 15.1973 131.08 15.1973C133.158 15.1973 134.885 15.6211 136.262 16.4688C137.638 17.3164 138.668 18.5104 139.352 20.0508C140.044 21.582 140.391 23.3913 140.391 25.4785ZM125.133 25.4785C125.133 27.0189 125.342 28.3542 125.762 29.4844C126.181 30.6055 126.824 31.4714 127.689 32.082C128.564 32.6836 129.686 32.9844 131.053 32.9844C132.429 32.9844 133.55 32.6836 134.416 32.082C135.282 31.4714 135.92 30.6055 136.33 29.4844C136.74 28.3542 136.945 27.0189 136.945 25.4785C136.945 23.1361 136.476 21.304 135.537 19.9824C134.607 18.6517 133.122 17.9863 131.08 17.9863C129.713 17.9863 128.587 18.2871 127.703 18.8887C126.828 19.4902 126.181 20.3516 125.762 21.4727C125.342 22.5846 125.133 23.9199 125.133 25.4785ZM150.303 15.5117C152.025 15.5117 153.447 15.7214 154.568 16.1406C155.699 16.5599 156.537 17.1979 157.084 18.0547C157.64 18.9115 157.918 20.0007 157.918 21.3223C157.918 22.3066 157.736 23.1452 157.371 23.8379C157.007 24.5306 156.528 25.1048 155.936 25.5605C155.343 26.0163 154.71 26.3809 154.035 26.6543L159.709 35.5H156.004L151.178 27.4883H147.965V35.5H144.684V15.5117H150.303ZM150.084 18.2461H147.965V24.7812H150.234C151.757 24.7812 152.859 24.4987 153.543 23.9336C154.236 23.3685 154.582 22.5345 154.582 21.4316C154.582 20.2741 154.213 19.4538 153.475 18.9707C152.745 18.4876 151.615 18.2461 150.084 18.2461Z" fill="#FCFCFC"/>
<defs>
<linearGradient id="paint0_linear_4836_128372" x1="5.41551" y1="34.3461" x2="38.68" y2="13.6392" gradientUnits="userSpaceOnUse">
<stop stop-color="#3383C5"/>
<stop offset="1" stop-color="#29C4B8"/>
</linearGradient>
</defs>
</svg>
