<svg width="107" height="111" viewBox="0 0 107 111" fill="none" xmlns="http://www.w3.org/2000/svg">
<path fill-rule="evenodd" clip-rule="evenodd" d="M58.8487 51.158L58.7749 51.1165C57.5293 50.4166 56.1865 50.2724 54.8143 50.691C53.683 51.036 52.4123 50.9367 51.3048 50.3148C49.2053 49.1347 48.4851 46.5203 49.6978 44.4757C50.9104 42.431 53.5955 41.7308 55.6958 42.9108C56.8029 43.534 57.5266 44.5549 57.7852 45.6806C58.0991 47.0464 58.8993 48.1075 60.1449 48.8068L60.7815 49.1647C62.0263 49.8645 63.3695 50.0087 64.7413 49.5901C65.5806 49.3342 66.496 49.3226 67.3648 49.5884C68.737 50.007 70.0811 49.8623 71.3259 49.1625L71.9638 48.8038C73.2085 48.104 74.0088 47.0447 74.3227 45.6793C74.4172 45.2671 74.5773 44.8613 74.8059 44.4761C76.0181 42.4319 78.7036 41.7308 80.8039 42.9113C82.9038 44.0917 83.6236 46.7061 82.411 48.7503C81.3632 50.5164 79.2167 51.2791 77.298 50.6936C75.9257 50.2745 74.5816 50.4188 73.3356 51.1186L72.6994 51.476C71.4547 52.1758 70.6545 53.236 70.3401 54.6018C70.2451 55.014 70.0851 55.4207 69.8565 55.8059C68.8096 57.5719 66.6631 58.3346 64.7439 57.7491C63.3712 57.3301 62.0276 57.4739 60.782 58.1741L60.1445 58.5328C58.8997 59.2322 58.0995 60.292 57.7856 61.6582C57.6911 62.0708 57.5306 62.4766 57.3019 62.8623C56.0898 64.9061 53.4042 65.6072 51.3039 64.4267C50.1972 63.8043 49.474 62.7839 49.215 61.6582C48.9006 60.2928 48.1009 59.2335 46.8561 58.5341L46.216 58.1741C44.9712 57.4747 43.6289 57.3301 42.2571 57.7482C41.1271 58.0924 39.8569 57.9922 38.7503 57.3707C36.6508 56.1907 35.9306 53.5763 37.1432 51.5316C38.3559 49.487 41.041 48.7867 43.1413 49.9676C44.2484 50.5896 44.9721 51.6104 45.2306 52.7361C45.5446 54.1015 46.3443 55.1613 47.5886 55.8607L48.2284 56.2202C49.4731 56.92 50.8163 57.0647 52.1876 56.6465C53.0261 56.3918 53.9415 56.3803 54.8099 56.6452C56.1821 57.0638 57.5257 56.9192 58.7713 56.2202L58.8487 56.177C59.7949 55.6449 60.3366 54.732 60.3366 53.6683C60.3362 52.6038 59.7945 51.6909 58.8483 51.1597L58.8487 51.158ZM24.5892 44.4757C23.377 46.5199 24.0963 49.1343 26.1962 50.3143C28.2965 51.4948 30.9816 50.7946 32.1943 48.7499C33.2411 46.9843 32.8476 44.7937 31.3681 43.4694C30.3102 42.5222 29.7672 41.3173 29.7672 39.9181V39.1952C29.7672 37.7968 30.3098 36.5928 31.3659 35.6456C31.6847 35.3592 31.9656 35.0219 32.1943 34.6372C32.4224 34.2519 32.5829 33.8462 32.6775 33.4336C32.9914 32.0677 33.7916 31.008 35.0363 30.3081L35.6739 29.9495C36.9195 29.2492 38.2631 29.1054 39.6358 29.5244C41.5545 30.11 43.7015 29.3468 44.7483 27.5812C45.9609 25.5365 45.2416 22.9222 43.1413 21.7421C41.041 20.5616 38.3559 21.2619 37.1432 23.307C36.9146 23.6922 36.7546 24.0984 36.66 24.5101C36.3461 25.876 35.5459 26.9357 34.3012 27.6356L34.2313 27.6745C33.2851 28.2065 32.2017 28.2065 31.2555 27.6745C30.3094 27.1429 29.7677 26.2295 29.7677 25.1663V25.0824C29.7677 23.6836 30.3102 22.48 31.3663 21.5324C31.6851 21.2469 31.9661 20.9088 32.1947 20.5248C32.4229 20.1392 32.5834 19.7334 32.6779 19.3208C32.9918 17.9554 33.792 16.8956 35.0372 16.1958L35.6743 15.8376C36.9199 15.1377 38.2635 14.9935 39.6362 15.4125C41.555 15.9981 43.7019 15.2353 44.7488 13.4693C45.9614 11.4251 45.2421 8.81071 43.1417 7.63022C41.0414 6.44973 38.3563 7.15041 37.1437 9.19507C36.9151 9.58029 36.7546 9.98606 36.66 10.3982C36.3461 11.7641 35.5463 12.8238 34.3012 13.5241L33.6637 13.8815C32.4176 14.5817 31.0744 14.7256 29.7017 14.3065C27.783 13.721 25.6369 14.4846 24.5887 16.2502C23.5423 18.0158 23.9354 20.2064 25.4145 21.5307C26.4723 22.4783 27.0153 23.6823 27.0153 25.0816V25.8049C27.0153 27.2033 26.4732 28.4069 25.4167 29.3545C25.0983 29.64 24.8174 29.9781 24.5887 30.3629C23.5423 32.1281 23.9354 34.3187 25.4145 35.6439C26.4723 36.5906 27.0153 37.7955 27.0153 39.1943V39.9185C27.0153 41.3169 26.4736 42.5205 25.4171 43.4681C25.0983 43.754 24.8174 44.0917 24.5887 44.4761L24.5892 44.4757ZM61.7695 40.4882C62.0276 41.6143 62.7522 42.6356 63.8588 43.2575C65.9592 44.4376 68.6443 43.7378 69.8569 41.6931C71.0695 39.6489 70.3502 37.0345 68.2503 35.854C67.1428 35.2313 65.8726 35.1328 64.7413 35.4778C63.369 35.8968 62.0263 35.7517 60.7807 35.0519L60.1445 34.6945C58.8993 33.9947 58.0995 32.9345 57.7852 31.5682C57.5939 30.7332 57.1463 29.9559 56.4767 29.3562C55.4188 28.409 54.8758 27.2041 54.8758 25.8049V25.0824C54.8758 23.6836 55.4179 22.4796 56.4749 21.5324C56.7937 21.246 57.0746 20.9088 57.3028 20.5248C58.5155 18.4802 57.7957 15.8658 55.6958 14.6857C53.5955 13.5053 50.9104 14.2055 49.6978 16.2502C48.6509 18.0158 49.0444 20.2064 50.5235 21.5307C51.5813 22.4783 52.1239 23.6823 52.1239 25.0816V25.8049C52.1239 27.2037 51.5818 28.4073 50.5252 29.3545C50.2069 29.64 49.9259 29.9786 49.6978 30.3634C49.4691 30.7494 49.3082 31.1552 49.2137 31.5687C48.9002 32.9349 48.1 33.9956 46.8548 34.6954L46.2217 35.0511C44.9756 35.7522 43.6311 35.8951 42.258 35.4757C40.3384 34.8893 38.191 35.6524 37.1432 37.4189C35.9311 39.4631 36.6504 42.0775 38.7503 43.2575C40.8506 44.438 43.5357 43.7378 44.7483 41.6931C44.9774 41.307 45.1379 40.9008 45.2324 40.4874C45.5459 39.1211 46.3461 38.0605 47.5917 37.3602L48.224 37.005C49.47 36.3043 50.815 36.1605 52.1876 36.58C53.0573 36.8462 53.9745 36.8346 54.8143 36.5787C56.1865 36.1601 57.5293 36.3043 58.7749 37.0037L59.4102 37.3607C60.6558 38.0605 61.456 39.1211 61.7695 40.4878V40.4882ZM74.8063 30.3634C75.0345 29.9786 75.3159 29.6408 75.6342 29.3549C76.6908 28.4073 77.2325 27.2037 77.2325 25.8053V25.0824C77.2325 23.6832 76.6899 22.4788 75.632 21.5311C74.9629 20.9323 74.5161 20.155 74.324 19.3217C74.0101 17.9563 73.2099 16.8965 71.9651 16.1971L71.8944 16.1577C70.9482 15.6257 69.8648 15.6257 68.9186 16.1577C67.9724 16.6897 67.4308 17.6027 67.4308 18.6664V18.7498C67.4308 20.149 67.9738 21.3531 69.0312 22.3007C70.5103 23.6254 70.9042 25.816 69.8565 27.5816C68.6438 29.6254 65.9587 30.3261 63.8584 29.1461C61.7585 27.966 61.0392 25.3516 62.2514 23.3074C62.4796 22.9226 62.761 22.5849 63.0797 22.2986C64.1363 21.3509 64.6784 20.1473 64.6784 18.749V18.0265C64.6784 16.6273 64.1354 15.4228 63.0775 14.4752C62.4083 13.8759 61.9616 13.0986 61.7695 12.2644C61.4556 10.899 60.6554 9.83967 59.4106 9.14028L58.7709 8.78075C57.5262 8.08093 56.1834 7.93669 54.8116 8.35443C53.6817 8.69899 52.411 8.59926 51.3039 7.97692C49.204 6.79686 48.4842 4.1825 49.6969 2.13826C50.9095 0.0936003 53.595 -0.607072 55.6949 0.573414C56.8012 1.1949 57.5249 2.21616 57.7838 3.34186C58.0978 4.70683 58.8975 5.76661 60.1423 6.466L60.7833 6.82597C62.0276 7.52536 63.3699 7.6696 64.7417 7.25228C65.8726 6.90815 67.1423 7.00745 68.249 7.62936C69.3557 8.25128 70.0789 9.27254 70.3379 10.3978C70.6518 11.7632 71.452 12.8226 72.6968 13.5224L73.3365 13.8819C74.5812 14.5817 75.9244 14.7264 77.2958 14.3082C78.4266 13.9641 79.696 14.0634 80.8031 14.6857C82.903 15.8658 83.6227 18.4806 82.4101 20.5248C82.1823 20.9092 81.9009 21.2465 81.5822 21.5324C80.5256 22.4792 79.9831 23.6836 79.9831 25.0824V25.8049C79.9831 27.2037 80.5261 28.409 81.5839 29.3558C83.0634 30.6805 83.4574 32.8716 82.4101 34.6367C81.1975 36.681 78.5124 37.3816 76.412 36.2012C74.3121 35.0211 73.5928 32.4067 74.805 30.3625L74.8063 30.3634Z" fill="url(#paint0_linear_4836_128343)"/>
<path d="M5.87891 103H2.625V83.0117H13.918V85.7734H5.87891V92.0078H13.3984V94.7559H5.87891V103ZM29.9414 103L27.9863 97.4492H20.3438L18.3887 103H14.9297L22.3672 82.9297H26.0039L33.4277 103H29.9414ZM27.1387 94.6328L25.2383 89.1641C25.1654 88.9271 25.0605 88.5944 24.9238 88.166C24.7871 87.7285 24.6504 87.2865 24.5137 86.8398C24.377 86.3841 24.263 86.0013 24.1719 85.6914C24.0807 86.0651 23.9668 86.4844 23.8301 86.9492C23.7025 87.4049 23.5749 87.8333 23.4473 88.2344C23.3288 88.6354 23.2376 88.9453 23.1738 89.1641L21.2598 94.6328H27.1387ZM44.584 85.5137C43.627 85.5137 42.7702 85.6868 42.0137 86.0332C41.2663 86.3796 40.6328 86.8809 40.1133 87.5371C39.5938 88.1842 39.1973 88.9727 38.9238 89.9023C38.6504 90.8229 38.5137 91.862 38.5137 93.0195C38.5137 94.569 38.7324 95.9043 39.1699 97.0254C39.6074 98.1374 40.2728 98.9941 41.166 99.5957C42.0592 100.188 43.1895 100.484 44.5566 100.484C45.4043 100.484 46.2292 100.402 47.0312 100.238C47.8333 100.074 48.6628 99.8509 49.5195 99.5684V102.357C48.7083 102.676 47.888 102.909 47.0586 103.055C46.2292 103.201 45.2721 103.273 44.1875 103.273C42.1458 103.273 40.4505 102.85 39.1016 102.002C37.7617 101.154 36.7591 99.9603 36.0938 98.4199C35.4375 96.8796 35.1094 95.0749 35.1094 93.0059C35.1094 91.4928 35.319 90.1074 35.7383 88.8496C36.1576 87.5918 36.7682 86.5072 37.5703 85.5957C38.3724 84.6751 39.3613 83.9688 40.5371 83.4766C41.722 82.9753 43.0755 82.7246 44.5977 82.7246C45.6003 82.7246 46.5846 82.8385 47.5508 83.0664C48.526 83.2852 49.4284 83.5996 50.2578 84.0098L49.1094 86.7168C48.4167 86.3887 47.6921 86.1061 46.9355 85.8691C46.179 85.6322 45.3952 85.5137 44.584 85.5137ZM60.7441 103H57.4492V85.8008H51.5977V83.0117H66.582V85.8008H60.7441V103ZM87.3906 92.9785C87.3906 94.5189 87.1947 95.9225 86.8027 97.1895C86.4199 98.4473 85.8411 99.5319 85.0664 100.443C84.2917 101.346 83.321 102.043 82.1543 102.535C80.9876 103.027 79.6204 103.273 78.0527 103.273C76.4577 103.273 75.0723 103.027 73.8965 102.535C72.7298 102.043 71.7591 101.341 70.9844 100.43C70.2188 99.5182 69.6445 98.429 69.2617 97.1621C68.8789 95.8952 68.6875 94.4915 68.6875 92.9512C68.6875 90.8913 69.0247 89.0957 69.6992 87.5645C70.3828 86.0241 71.4173 84.8301 72.8027 83.9824C74.1973 83.1257 75.9564 82.6973 78.0801 82.6973C80.1582 82.6973 81.8854 83.1211 83.2617 83.9688C84.638 84.8164 85.668 86.0104 86.3516 87.5508C87.0443 89.082 87.3906 90.8913 87.3906 92.9785ZM72.1328 92.9785C72.1328 94.5189 72.3424 95.8542 72.7617 96.9844C73.181 98.1055 73.8236 98.9714 74.6895 99.582C75.5645 100.184 76.6855 100.484 78.0527 100.484C79.429 100.484 80.5501 100.184 81.416 99.582C82.2819 98.9714 82.9199 98.1055 83.3301 96.9844C83.7402 95.8542 83.9453 94.5189 83.9453 92.9785C83.9453 90.6361 83.4759 88.804 82.5371 87.4824C81.6074 86.1517 80.1217 85.4863 78.0801 85.4863C76.7129 85.4863 75.5872 85.7871 74.7031 86.3887C73.8281 86.9902 73.181 87.8516 72.7617 88.9727C72.3424 90.0846 72.1328 91.4199 72.1328 92.9785ZM97.3027 83.0117C99.0254 83.0117 100.447 83.2214 101.568 83.6406C102.699 84.0599 103.537 84.6979 104.084 85.5547C104.64 86.4115 104.918 87.5007 104.918 88.8223C104.918 89.8066 104.736 90.6452 104.371 91.3379C104.007 92.0306 103.528 92.6048 102.936 93.0605C102.343 93.5163 101.71 93.8809 101.035 94.1543L106.709 103H103.004L98.1777 94.9883H94.9648V103H91.6836V83.0117H97.3027ZM97.084 85.7461H94.9648V92.2812H97.2344C98.7565 92.2812 99.8594 91.9987 100.543 91.4336C101.236 90.8685 101.582 90.0345 101.582 88.9316C101.582 87.7741 101.213 86.9538 100.475 86.4707C99.7454 85.9876 98.6152 85.7461 97.084 85.7461Z" fill="#FCFCFC"/>
<defs>
<linearGradient id="paint0_linear_4836_128343" x1="31.1003" y1="45.5611" x2="74.9972" y2="18.5533" gradientUnits="userSpaceOnUse">
<stop stop-color="#3383C5"/>
<stop offset="1" stop-color="#29C4B8"/>
</linearGradient>
</defs>
</svg>
