<?xml version="1.0" encoding="utf-8"?>
<!-- Generator: Adobe Illustrator 28.3.0, SVG Export Plug-In . SVG Version: 6.00 Build 0)  -->
<svg version="1.1" id="Layer_1" xmlns="http://www.w3.org/2000/svg" xmlns:xlink="http://www.w3.org/1999/xlink" x="0px" y="0px"
	 viewBox="0 0 107 111" style="enable-background:new 0 0 107 111;" xml:space="preserve">
<style type="text/css">
	.st0{fill-rule:evenodd;clip-rule:evenodd;fill:url(#SVGID_1_);}
	.st1{fill:#02043C;}
</style>
<linearGradient id="SVGID_1_" gradientUnits="userSpaceOnUse" x1="31.422" y1="65.9161" x2="75.3189" y2="92.9239" gradientTransform="matrix(1 0 0 -1 0 112)">
	<stop  offset="0" style="stop-color:#3383C5"/>
	<stop  offset="1" style="stop-color:#29C4B8"/>
</linearGradient>
<path class="st0" d="M58.8,51.2L58.8,51.2c-1.3-0.7-2.7-0.9-4-0.5c-1.1,0.3-2.4,0.2-3.5-0.4c-2.1-1.2-2.8-3.8-1.6-5.8
	c1.2-2,3.9-2.7,6-1.6c1.1,0.6,1.8,1.6,2.1,2.8c0.3,1.4,1.1,2.4,2.4,3.1l0.6,0.4c1.2,0.7,2.6,0.8,4,0.4c0.8-0.3,1.8-0.3,2.6,0
	c1.4,0.4,2.7,0.3,4-0.4l0.6-0.4c1.2-0.7,2-1.8,2.4-3.1c0.1-0.4,0.3-0.8,0.5-1.2c1.2-2,3.9-2.7,6-1.6c2.1,1.2,2.8,3.8,1.6,5.8
	c-1,1.8-3.2,2.5-5.1,1.9c-1.4-0.4-2.7-0.3-4,0.4l-0.6,0.4c-1.2,0.7-2,1.8-2.4,3.1c-0.1,0.4-0.3,0.8-0.5,1.2c-1,1.8-3.2,2.5-5.1,1.9
	c-1.4-0.4-2.7-0.3-4,0.4l-0.6,0.4c-1.2,0.7-2,1.8-2.4,3.1c-0.1,0.4-0.3,0.8-0.5,1.2c-1.2,2-3.9,2.7-6,1.6c-1.1-0.6-1.8-1.6-2.1-2.8
	c-0.3-1.4-1.1-2.4-2.4-3.1l-0.6-0.4c-1.2-0.7-2.6-0.8-4-0.4c-1.1,0.3-2.4,0.2-3.5-0.4c-2.1-1.2-2.8-3.8-1.6-5.8c1.2-2,3.9-2.7,6-1.6
	c1.1,0.6,1.8,1.6,2.1,2.8c0.3,1.4,1.1,2.4,2.4,3.1l0.6,0.4c1.2,0.7,2.6,0.8,4,0.4c0.8-0.3,1.8-0.3,2.6,0c1.4,0.4,2.7,0.3,4-0.4
	l0.1,0c0.9-0.5,1.5-1.4,1.5-2.5C60.3,52.6,59.8,51.7,58.8,51.2L58.8,51.2z M24.6,44.5c-1.2,2-0.5,4.7,1.6,5.8c2.1,1.2,4.8,0.5,6-1.6
	c1-1.8,0.7-4-0.8-5.3c-1.1-0.9-1.6-2.2-1.6-3.6v-0.7c0-1.4,0.5-2.6,1.6-3.5c0.3-0.3,0.6-0.6,0.8-1c0.2-0.4,0.4-0.8,0.5-1.2
	c0.3-1.4,1.1-2.4,2.4-3.1l0.6-0.4c1.2-0.7,2.6-0.8,4-0.4c1.9,0.6,4.1-0.2,5.1-1.9c1.2-2,0.5-4.7-1.6-5.8c-2.1-1.2-4.8-0.5-6,1.6
	c-0.2,0.4-0.4,0.8-0.5,1.2c-0.3,1.4-1.1,2.4-2.4,3.1l-0.1,0c-0.9,0.5-2,0.5-3,0c-0.9-0.5-1.5-1.4-1.5-2.5v-0.1
	c0-1.4,0.5-2.6,1.6-3.5c0.3-0.3,0.6-0.6,0.8-1c0.2-0.4,0.4-0.8,0.5-1.2c0.3-1.4,1.1-2.4,2.4-3.1l0.6-0.4c1.2-0.7,2.6-0.8,4-0.4
	c1.9,0.6,4.1-0.2,5.1-1.9c1.2-2,0.5-4.7-1.6-5.8c-2.1-1.2-4.8-0.5-6,1.6c-0.2,0.4-0.4,0.8-0.5,1.2c-0.3,1.4-1.1,2.4-2.4,3.1
	l-0.6,0.4c-1.2,0.7-2.6,0.8-4,0.4c-1.9-0.6-4.1,0.2-5.1,1.9c-1,1.8-0.7,4,0.8,5.3c1.1,0.9,1.6,2.2,1.6,3.6v0.7
	c0,1.4-0.5,2.6-1.6,3.5c-0.3,0.3-0.6,0.6-0.8,1c-1,1.8-0.7,4,0.8,5.3c1.1,0.9,1.6,2.2,1.6,3.6v0.7c0,1.4-0.5,2.6-1.6,3.5
	C25.1,43.8,24.8,44.1,24.6,44.5L24.6,44.5z M61.8,40.5c0.3,1.1,1,2.1,2.1,2.8c2.1,1.2,4.8,0.5,6-1.6c1.2-2,0.5-4.7-1.6-5.8
	c-1.1-0.6-2.4-0.7-3.5-0.4c-1.4,0.4-2.7,0.3-4-0.4l-0.6-0.4c-1.2-0.7-2-1.8-2.4-3.1c-0.2-0.8-0.6-1.6-1.3-2.2
	c-1.1-0.9-1.6-2.2-1.6-3.6v-0.7c0-1.4,0.5-2.6,1.6-3.5c0.3-0.3,0.6-0.6,0.8-1c1.2-2,0.5-4.7-1.6-5.8c-2.1-1.2-4.8-0.5-6,1.6
	c-1,1.8-0.7,4,0.8,5.3c1.1,0.9,1.6,2.2,1.6,3.6v0.7c0,1.4-0.5,2.6-1.6,3.5c-0.3,0.3-0.6,0.6-0.8,1c-0.2,0.4-0.4,0.8-0.5,1.2
	c-0.3,1.4-1.1,2.4-2.4,3.1l-0.6,0.4c-1.2,0.7-2.6,0.8-4,0.4c-1.9-0.6-4.1,0.2-5.1,1.9c-1.2,2-0.5,4.7,1.6,5.8c2.1,1.2,4.8,0.5,6-1.6
	c0.2-0.4,0.4-0.8,0.5-1.2c0.3-1.4,1.1-2.4,2.4-3.1l0.6-0.4c1.2-0.7,2.6-0.8,4-0.4c0.9,0.3,1.8,0.3,2.6,0c1.4-0.4,2.7-0.3,4,0.4
	l0.6,0.4C60.7,38.1,61.5,39.1,61.8,40.5L61.8,40.5z M74.8,30.4c0.2-0.4,0.5-0.7,0.8-1c1.1-0.9,1.6-2.2,1.6-3.5v-0.7
	c0-1.4-0.5-2.6-1.6-3.6c-0.7-0.6-1.1-1.4-1.3-2.2C74,18,73.2,16.9,72,16.2l-0.1,0c-0.9-0.5-2-0.5-3,0c-0.9,0.5-1.5,1.4-1.5,2.5v0.1
	c0,1.4,0.5,2.6,1.6,3.6c1.5,1.3,1.9,3.5,0.8,5.3c-1.2,2-3.9,2.7-6,1.6c-2.1-1.2-2.8-3.8-1.6-5.8c0.2-0.4,0.5-0.7,0.8-1
	c1.1-0.9,1.6-2.2,1.6-3.5V18c0-1.4-0.5-2.6-1.6-3.6c-0.7-0.6-1.1-1.4-1.3-2.2c-0.3-1.4-1.1-2.4-2.4-3.1l-0.6-0.4
	c-1.2-0.7-2.6-0.8-4-0.4c-1.1,0.3-2.4,0.2-3.5-0.4c-2.1-1.2-2.8-3.8-1.6-5.8c1.2-2,3.9-2.7,6-1.6c1.1,0.6,1.8,1.6,2.1,2.8
	c0.3,1.4,1.1,2.4,2.4,3.1l0.6,0.4c1.2,0.7,2.6,0.8,4,0.4c1.1-0.3,2.4-0.2,3.5,0.4c1.1,0.6,1.8,1.6,2.1,2.8c0.3,1.4,1.1,2.4,2.4,3.1
	l0.6,0.4c1.2,0.7,2.6,0.8,4,0.4c1.1-0.3,2.4-0.2,3.5,0.4c2.1,1.2,2.8,3.8,1.6,5.8c-0.2,0.4-0.5,0.7-0.8,1c-1.1,0.9-1.6,2.2-1.6,3.5
	v0.7c0,1.4,0.5,2.6,1.6,3.6c1.5,1.3,1.9,3.5,0.8,5.3c-1.2,2-3.9,2.7-6,1.6C74.3,35,73.6,32.4,74.8,30.4L74.8,30.4z"/>
<path class="st1" d="M5.9,103H2.6V83h11.3v2.8h-8V92h7.5v2.7H5.9V103z M29.9,103l-2-5.6h-7.6l-2,5.6h-3.5l7.4-20.1H26l7.4,20.1H29.9
	z M27.1,94.6l-1.9-5.5c-0.1-0.2-0.2-0.6-0.3-1c-0.1-0.4-0.3-0.9-0.4-1.3c-0.1-0.5-0.3-0.8-0.3-1.1c-0.1,0.4-0.2,0.8-0.3,1.3
	c-0.1,0.5-0.3,0.9-0.4,1.3c-0.1,0.4-0.2,0.7-0.3,0.9l-1.9,5.5H27.1z M44.6,85.5c-1,0-1.8,0.2-2.6,0.5c-0.7,0.3-1.4,0.8-1.9,1.5
	c-0.5,0.6-0.9,1.4-1.2,2.4c-0.3,0.9-0.4,2-0.4,3.1c0,1.5,0.2,2.9,0.7,4c0.4,1.1,1.1,2,2,2.6c0.9,0.6,2,0.9,3.4,0.9
	c0.8,0,1.7-0.1,2.5-0.2c0.8-0.2,1.6-0.4,2.5-0.7v2.8c-0.8,0.3-1.6,0.6-2.5,0.7c-0.8,0.1-1.8,0.2-2.9,0.2c-2,0-3.7-0.4-5.1-1.3
	c-1.3-0.8-2.3-2-3-3.6c-0.7-1.5-1-3.3-1-5.4c0-1.5,0.2-2.9,0.6-4.2c0.4-1.3,1-2.3,1.8-3.3c0.8-0.9,1.8-1.6,3-2.1
	c1.2-0.5,2.5-0.8,4.1-0.8c1,0,2,0.1,3,0.3c1,0.2,1.9,0.5,2.7,0.9l-1.1,2.7c-0.7-0.3-1.4-0.6-2.2-0.8C46.2,85.6,45.4,85.5,44.6,85.5z
	 M60.7,103h-3.3V85.8h-5.9V83h15v2.8h-5.8V103z M87.4,93c0,1.5-0.2,2.9-0.6,4.2c-0.4,1.3-1,2.3-1.7,3.3c-0.8,0.9-1.7,1.6-2.9,2.1
	c-1.2,0.5-2.5,0.7-4.1,0.7c-1.6,0-3-0.2-4.2-0.7c-1.2-0.5-2.1-1.2-2.9-2.1c-0.8-0.9-1.3-2-1.7-3.3c-0.4-1.3-0.6-2.7-0.6-4.2
	c0-2.1,0.3-3.9,1-5.4c0.7-1.5,1.7-2.7,3.1-3.6c1.4-0.9,3.2-1.3,5.3-1.3c2.1,0,3.8,0.4,5.2,1.3c1.4,0.8,2.4,2,3.1,3.6
	C87,89.1,87.4,90.9,87.4,93z M72.1,93c0,1.5,0.2,2.9,0.6,4c0.4,1.1,1.1,2,1.9,2.6c0.9,0.6,2,0.9,3.4,0.9c1.4,0,2.5-0.3,3.4-0.9
	c0.9-0.6,1.5-1.5,1.9-2.6c0.4-1.1,0.6-2.5,0.6-4c0-2.3-0.5-4.2-1.4-5.5c-0.9-1.3-2.4-2-4.5-2c-1.4,0-2.5,0.3-3.4,0.9
	c-0.9,0.6-1.5,1.5-1.9,2.6C72.3,90.1,72.1,91.4,72.1,93z M97.3,83c1.7,0,3.1,0.2,4.3,0.6c1.1,0.4,2,1.1,2.5,1.9
	c0.6,0.9,0.8,1.9,0.8,3.3c0,1-0.2,1.8-0.5,2.5c-0.4,0.7-0.8,1.3-1.4,1.7c-0.6,0.5-1.2,0.8-1.9,1.1l5.7,8.8H103l-4.8-8H95v8h-3.3V83
	H97.3z M97.1,85.7H95v6.5h2.3c1.5,0,2.6-0.3,3.3-0.8c0.7-0.6,1-1.4,1-2.5c0-1.2-0.4-2-1.1-2.5C99.7,86,98.6,85.7,97.1,85.7z"/>
</svg>
